<svg width="39" height="39" viewBox="0 0 39 39" fill="none" xmlns="http://www.w3.org/2000/svg">
<path d="M33.2862 5.70934C25.6698 -1.90473 13.323 -1.9029 5.70897 5.71353C-1.90509 13.33 -1.90326 25.6767 5.71316 33.2907C13.3296 40.9048 25.6763 40.903 33.2904 33.2865C36.9471 29.6287 39.0008 24.668 38.9997 19.4958C38.9986 14.3245 36.9434 9.36544 33.2862 5.70934ZM29.5317 27.1633C29.5309 27.1641 29.5301 27.1651 29.5291 27.1659V27.1594L28.5411 28.1409C27.2633 29.4348 25.4024 29.9672 23.6336 29.5449C21.8515 29.0679 20.1575 28.3086 18.6156 27.2959C17.1831 26.3804 15.8556 25.3102 14.6571 24.1044C13.5544 23.0097 12.5637 21.8077 11.6996 20.5164C10.7544 19.1269 10.0064 17.6132 9.47659 16.0184C8.86927 14.1448 9.37254 12.089 10.7766 10.7079L11.9336 9.55092C12.2553 9.22779 12.778 9.22665 13.101 9.54833C13.1018 9.54916 13.1027 9.55 13.1036 9.55092L16.7566 13.2039C17.0797 13.5256 17.0808 14.0483 16.7592 14.3713C16.7583 14.3721 16.7575 14.373 16.7566 14.3739L14.6116 16.5189C13.9961 17.1277 13.9187 18.095 14.4296 18.7939C15.2054 19.8586 16.0639 20.8605 16.9971 21.7904C18.0375 22.8354 19.1686 23.7859 20.3771 24.631C21.0754 25.118 22.022 25.0359 22.6261 24.436L24.6995 22.33C25.0212 22.0068 25.5439 22.0057 25.8669 22.3274C25.8678 22.3282 25.8686 22.3291 25.8695 22.33L29.5291 25.996C29.8523 26.3176 29.8534 26.8402 29.5317 27.1633Z" fill="#154B86"/>
</svg>
