<svg width="39" height="39" viewBox="0 0 39 39" fill="none" xmlns="http://www.w3.org/2000/svg">
<path d="M19.5 0C8.73209 0 0 8.73209 0 19.5C0 30.2679 8.73209 39 19.5 39C30.2679 39 39 30.2679 39 19.5C39 8.73209 30.2679 0 19.5 0ZM19.9133 30.8535C19.913 30.8535 19.9136 30.8535 19.9133 30.8535H19.9085C17.9551 30.8526 16.0357 30.3628 14.331 29.4333L8.14414 31.0558L9.79999 25.0097C8.77851 23.2405 8.24114 21.2332 8.24203 19.1769C8.24471 12.7439 13.4803 7.51037 19.9133 7.51037C23.0351 7.51156 25.9657 8.72674 28.169 10.9319C30.3726 13.1373 31.5854 16.0687 31.5843 19.1861C31.5816 25.6193 26.3454 30.8535 19.9133 30.8535Z" fill="#154B86"/>
<path d="M19.9172 9.48145C14.5664 9.48145 10.2148 13.8313 10.2124 19.1782C10.2118 21.0105 10.7248 22.7949 11.6957 24.3388L11.9263 24.7057L10.9462 28.2843L14.6176 27.3214L14.972 27.5315C16.4612 28.4152 18.1685 28.8827 19.9091 28.8833H19.913C25.2596 28.8833 29.6112 24.5331 29.6136 19.1859C29.6145 16.5946 28.6064 14.1583 26.775 12.3254C24.9436 10.4925 22.5079 9.48234 19.9172 9.48145ZM25.6229 23.3474C25.3798 24.0282 24.2149 24.6498 23.6547 24.7337C23.1521 24.8087 22.5165 24.8399 21.8179 24.6182C21.3942 24.4837 20.8512 24.3043 20.1552 24.0041C17.23 22.7413 15.3195 19.7968 15.1737 19.6022C15.0279 19.4076 13.9829 18.0213 13.9829 16.5863C13.9829 15.1515 14.7363 14.446 15.0035 14.1544C15.271 13.8625 15.587 13.7896 15.7813 13.7896C15.9756 13.7896 16.1702 13.7914 16.3401 13.7997C16.5192 13.8087 16.7596 13.7316 16.9962 14.3002C17.2393 14.884 17.8225 16.3188 17.8954 16.4646C17.9683 16.6107 18.0168 16.7809 17.9198 16.9754C17.8225 17.17 17.4993 17.5899 17.1908 17.9725C17.0613 18.1329 16.8926 18.2757 17.0628 18.5676C17.2327 18.8592 17.8183 19.814 18.685 20.5871C19.7991 21.5803 20.7387 21.8879 21.0303 22.034C21.3216 22.1798 21.4918 22.1554 21.662 21.9611C21.8319 21.7665 22.391 21.1099 22.5853 20.818C22.7796 20.5261 22.9742 20.5749 23.2414 20.6722C23.5089 20.7692 24.9424 21.4746 25.234 21.6204C25.5256 21.7665 25.7199 21.8394 25.7928 21.9611C25.866 22.0828 25.866 22.6663 25.6229 23.3474Z" fill="#154B86"/>
</svg>
